<mxfile host="app.diagrams.net" modified="2023-04-03T10:09:04.283Z" agent="Mozilla/5.0 (X11; Ubuntu; Linux x86_64; rv:109.0) Gecko/20100101 Firefox/111.0" etag="M6bTQakedW7_tYBKWMW_" version="21.1.1" type="device">
  <diagram name="Page-1" id="zJOm-xxayXp3XUFxfwfP">
    <mxGraphModel dx="3287" dy="1846" grid="1" gridSize="10" guides="1" tooltips="1" connect="1" arrows="1" fold="1" page="1" pageScale="1" pageWidth="850" pageHeight="1100" math="1" shadow="0">
      <root>
        <mxCell id="0" />
        <mxCell id="1" parent="0" />
        <mxCell id="e3gDoeCK-pdHMSbKdM1Z-1" value="" style="endArrow=classic;html=1;rounded=0;strokeWidth=6;" parent="1" edge="1">
          <mxGeometry width="50" height="50" relative="1" as="geometry">
            <mxPoint x="30" y="81" as="sourcePoint" />
            <mxPoint x="1360.0000000000005" y="81" as="targetPoint" />
          </mxGeometry>
        </mxCell>
        <mxCell id="e3gDoeCK-pdHMSbKdM1Z-2" value="SCOOP" style="rounded=1;whiteSpace=wrap;html=1;fillColor=#d5e8d4;strokeColor=#82b366;" parent="1" vertex="1">
          <mxGeometry x="920" y="100" width="120" height="60" as="geometry" />
        </mxCell>
        <mxCell id="e3gDoeCK-pdHMSbKdM1Z-4" style="edgeStyle=orthogonalEdgeStyle;rounded=0;orthogonalLoop=1;jettySize=auto;html=1;" parent="1" source="e3gDoeCK-pdHMSbKdM1Z-3" target="e3gDoeCK-pdHMSbKdM1Z-2" edge="1">
          <mxGeometry relative="1" as="geometry" />
        </mxCell>
        <mxCell id="e3gDoeCK-pdHMSbKdM1Z-3" value="&lt;div&gt;$$\mathcal{L}_{smothness}$$&lt;/div&gt;&lt;div&gt;2) NN&lt;/div&gt;&lt;div&gt;3) prelearned soft-correspondeces&lt;/div&gt;&lt;div&gt;4) Optimization refinement&lt;/div&gt;&lt;div&gt;5) 2048 pts&lt;br&gt;&lt;/div&gt;" style="rounded=0;whiteSpace=wrap;html=1;" parent="1" vertex="1">
          <mxGeometry x="920" y="290" width="120" height="190" as="geometry" />
        </mxCell>
        <mxCell id="e3gDoeCK-pdHMSbKdM1Z-5" value="RIGID FLOW" style="rounded=1;whiteSpace=wrap;html=1;fillColor=#f8cecc;strokeColor=#b85450;" parent="1" vertex="1">
          <mxGeometry x="730" y="100" width="120" height="60" as="geometry" />
        </mxCell>
        <mxCell id="e3gDoeCK-pdHMSbKdM1Z-8" value="Timeline / Performance" style="text;html=1;strokeColor=none;fillColor=none;align=center;verticalAlign=middle;whiteSpace=wrap;rounded=0;fontSize=21;" parent="1" vertex="1">
          <mxGeometry x="1060" y="40" width="530" height="30" as="geometry" />
        </mxCell>
        <mxCell id="e3gDoeCK-pdHMSbKdM1Z-9" value="SLIM " style="rounded=1;whiteSpace=wrap;html=1;fillColor=#fff2cc;strokeColor=#d6b656;" parent="1" vertex="1">
          <mxGeometry x="290" y="100" width="120" height="60" as="geometry" />
        </mxCell>
        <mxCell id="e3gDoeCK-pdHMSbKdM1Z-10" value="" style="endArrow=none;dashed=1;html=1;rounded=0;" parent="1" target="e3gDoeCK-pdHMSbKdM1Z-11" edge="1">
          <mxGeometry width="50" height="50" relative="1" as="geometry">
            <mxPoint x="40" y="200" as="sourcePoint" />
            <mxPoint x="1350" y="200" as="targetPoint" />
          </mxGeometry>
        </mxCell>
        <mxCell id="e3gDoeCK-pdHMSbKdM1Z-11" value="Mechanism" style="text;html=1;strokeColor=none;fillColor=none;align=center;verticalAlign=middle;whiteSpace=wrap;rounded=0;fontSize=20;" parent="1" vertex="1">
          <mxGeometry x="1320" y="185" width="90" height="30" as="geometry" />
        </mxCell>
        <mxCell id="e3gDoeCK-pdHMSbKdM1Z-12" value="FLOWSTEP 3D" style="rounded=1;whiteSpace=wrap;html=1;fillColor=#d5e8d4;strokeColor=#82b366;" parent="1" vertex="1">
          <mxGeometry x="160" y="100" width="120" height="60" as="geometry" />
        </mxCell>
        <mxCell id="e3gDoeCK-pdHMSbKdM1Z-13" value="" style="endArrow=none;dashed=1;html=1;dashPattern=1 3;strokeWidth=2;rounded=0;" parent="1" edge="1">
          <mxGeometry width="50" height="50" relative="1" as="geometry">
            <mxPoint x="650" y="680" as="sourcePoint" />
            <mxPoint x="650" y="80" as="targetPoint" />
          </mxGeometry>
        </mxCell>
        <mxCell id="e3gDoeCK-pdHMSbKdM1Z-14" value="" style="endArrow=none;dashed=1;html=1;dashPattern=1 3;strokeWidth=2;rounded=0;" parent="1" edge="1">
          <mxGeometry width="50" height="50" relative="1" as="geometry">
            <mxPoint x="1120" y="680" as="sourcePoint" />
            <mxPoint x="1120" y="80" as="targetPoint" />
          </mxGeometry>
        </mxCell>
        <mxCell id="e3gDoeCK-pdHMSbKdM1Z-15" value="" style="endArrow=none;dashed=1;html=1;dashPattern=1 3;strokeWidth=2;rounded=0;" parent="1" edge="1">
          <mxGeometry width="50" height="50" relative="1" as="geometry">
            <mxPoint x="60" y="680" as="sourcePoint" />
            <mxPoint x="60" y="80" as="targetPoint" />
          </mxGeometry>
        </mxCell>
        <mxCell id="e3gDoeCK-pdHMSbKdM1Z-18" value="2021" style="text;html=1;strokeColor=none;fillColor=none;align=center;verticalAlign=middle;whiteSpace=wrap;rounded=0;" parent="1" vertex="1">
          <mxGeometry x="270" y="40" width="60" height="30" as="geometry" />
        </mxCell>
        <mxCell id="e3gDoeCK-pdHMSbKdM1Z-19" value="2022" style="text;html=1;strokeColor=none;fillColor=none;align=center;verticalAlign=middle;whiteSpace=wrap;rounded=0;" parent="1" vertex="1">
          <mxGeometry x="850" y="40" width="60" height="30" as="geometry" />
        </mxCell>
        <mxCell id="e3gDoeCK-pdHMSbKdM1Z-20" value="" style="endArrow=none;dashed=1;html=1;rounded=0;" parent="1" target="e3gDoeCK-pdHMSbKdM1Z-21" edge="1">
          <mxGeometry width="50" height="50" relative="1" as="geometry">
            <mxPoint x="40" y="515" as="sourcePoint" />
            <mxPoint x="1350" y="515" as="targetPoint" />
          </mxGeometry>
        </mxCell>
        <mxCell id="e3gDoeCK-pdHMSbKdM1Z-21" value="Strengths" style="text;html=1;strokeColor=none;fillColor=none;align=center;verticalAlign=middle;whiteSpace=wrap;rounded=0;fontSize=20;" parent="1" vertex="1">
          <mxGeometry x="1320" y="500" width="90" height="30" as="geometry" />
        </mxCell>
        <mxCell id="e3gDoeCK-pdHMSbKdM1Z-22" value="" style="endArrow=none;dashed=1;html=1;rounded=0;" parent="1" edge="1">
          <mxGeometry width="50" height="50" relative="1" as="geometry">
            <mxPoint x="40" y="840" as="sourcePoint" />
            <mxPoint x="1320" y="840" as="targetPoint" />
          </mxGeometry>
        </mxCell>
        <mxCell id="e3gDoeCK-pdHMSbKdM1Z-24" value="" style="endArrow=none;dashed=1;html=1;rounded=0;" parent="1" target="e3gDoeCK-pdHMSbKdM1Z-25" edge="1">
          <mxGeometry width="50" height="50" relative="1" as="geometry">
            <mxPoint x="40" y="685" as="sourcePoint" />
            <mxPoint x="1350" y="685" as="targetPoint" />
          </mxGeometry>
        </mxCell>
        <mxCell id="e3gDoeCK-pdHMSbKdM1Z-25" value="Weak Points" style="text;html=1;strokeColor=none;fillColor=none;align=center;verticalAlign=middle;whiteSpace=wrap;rounded=0;fontSize=20;" parent="1" vertex="1">
          <mxGeometry x="1320" y="670" width="90" height="30" as="geometry" />
        </mxCell>
        <mxCell id="e3gDoeCK-pdHMSbKdM1Z-26" value="Potential Improvments" style="text;html=1;strokeColor=none;fillColor=none;align=center;verticalAlign=middle;whiteSpace=wrap;rounded=0;fontSize=20;" parent="1" vertex="1">
          <mxGeometry x="1320" y="820" width="90" height="30" as="geometry" />
        </mxCell>
        <mxCell id="e3gDoeCK-pdHMSbKdM1Z-27" value="" style="endArrow=none;dashed=1;html=1;rounded=0;" parent="1" edge="1">
          <mxGeometry width="50" height="50" relative="1" as="geometry">
            <mxPoint x="40" y="1080" as="sourcePoint" />
            <mxPoint x="1320" y="1080" as="targetPoint" />
          </mxGeometry>
        </mxCell>
        <mxCell id="e3gDoeCK-pdHMSbKdM1Z-28" value="Figures" style="text;html=1;strokeColor=none;fillColor=none;align=center;verticalAlign=middle;whiteSpace=wrap;rounded=0;fontSize=20;" parent="1" vertex="1">
          <mxGeometry x="1320" y="1060" width="90" height="30" as="geometry" />
        </mxCell>
        <mxCell id="e3gDoeCK-pdHMSbKdM1Z-29" value="" style="endArrow=none;dashed=1;html=1;rounded=0;" parent="1" edge="1">
          <mxGeometry width="50" height="50" relative="1" as="geometry">
            <mxPoint x="40" y="1300" as="sourcePoint" />
            <mxPoint x="1320" y="1300" as="targetPoint" />
          </mxGeometry>
        </mxCell>
        <mxCell id="e3gDoeCK-pdHMSbKdM1Z-30" value="links" style="text;html=1;strokeColor=none;fillColor=none;align=center;verticalAlign=middle;whiteSpace=wrap;rounded=0;fontSize=20;" parent="1" vertex="1">
          <mxGeometry x="1320" y="1280" width="90" height="30" as="geometry" />
        </mxCell>
        <mxCell id="e3gDoeCK-pdHMSbKdM1Z-32" value="&lt;div&gt;Best performance so far&lt;/div&gt;&lt;div&gt;almost no training&lt;/div&gt;&lt;div&gt;codes usable&lt;/div&gt;&lt;div&gt;&lt;br&gt;&lt;/div&gt;&lt;div&gt;&lt;br&gt;&lt;/div&gt;&lt;div&gt;&lt;br&gt;&lt;/div&gt;" style="rounded=0;whiteSpace=wrap;html=1;" parent="1" vertex="1">
          <mxGeometry x="920" y="530" width="120" height="120" as="geometry" />
        </mxCell>
        <mxCell id="e3gDoeCK-pdHMSbKdM1Z-33" value="&lt;div&gt;Still missing in SOTA:&lt;/div&gt;&lt;div&gt;Freespace / visibility&lt;/div&gt;&lt;div&gt;Full sequence smoothnes&lt;/div&gt;&lt;div&gt;Trajectory knowledge&lt;br&gt;&lt;/div&gt;" style="rounded=1;whiteSpace=wrap;html=1;" parent="1" vertex="1">
          <mxGeometry x="1660" y="1130" width="340" height="170" as="geometry" />
        </mxCell>
        <mxCell id="e3gDoeCK-pdHMSbKdM1Z-34" value="&lt;div&gt;domain gap with 2k pts&lt;/div&gt;&lt;div&gt;&lt;br&gt;&lt;/div&gt;&lt;div&gt;&lt;br&gt;&lt;/div&gt;&lt;div&gt;&lt;br&gt;&lt;/div&gt;" style="rounded=0;whiteSpace=wrap;html=1;" parent="1" vertex="1">
          <mxGeometry x="920" y="700" width="120" height="120" as="geometry" />
        </mxCell>
        <mxCell id="z26pmx9buJtxP_AXbYlB-1" value="&lt;div&gt;Flow-aware pretraining&lt;/div&gt;&lt;div&gt;&lt;br&gt;&lt;/div&gt;&lt;div&gt;https://www.bmvc2021-virtualconference.com/assets/papers/1352.pdf&lt;br&gt;&lt;/div&gt;" style="rounded=1;whiteSpace=wrap;html=1;" vertex="1" parent="1">
          <mxGeometry x="1860" y="750" width="120" height="60" as="geometry" />
        </mxCell>
        <UserObject label="&lt;div&gt;Reconstruction object detection - Georg&lt;br&gt;&lt;/div&gt;&lt;div&gt;&lt;br&gt;&lt;/div&gt;&lt;div&gt;https://arxiv.org/pdf/2212.07207v1.pdf&lt;/div&gt;" link="https://arxiv.org/pdf/2212.07207v1.pdf" id="z26pmx9buJtxP_AXbYlB-2">
          <mxCell style="rounded=0;whiteSpace=wrap;html=1;" vertex="1" parent="1">
            <mxGeometry x="1968" y="370" width="120" height="60" as="geometry" />
          </mxCell>
        </UserObject>
        <mxCell id="z26pmx9buJtxP_AXbYlB-3" value="&lt;h1 data-chapter-title=&quot;&quot; data-test=&quot;chapter-title&quot; class=&quot;c-article-title&quot;&gt;3D Object Detection with&amp;nbsp;a&amp;nbsp;Self-supervised Lidar Scene Flow Backbone&lt;/h1&gt;" style="rounded=0;whiteSpace=wrap;html=1;" vertex="1" parent="1">
          <mxGeometry x="1690" y="160" width="190" height="105" as="geometry" />
        </mxCell>
      </root>
    </mxGraphModel>
  </diagram>
</mxfile>
